<svg width="24" height="24" viewBox="0 0 24 24" fill="none" xmlns="http://www.w3.org/2000/svg">
<path d="M12 2.77688C15.0037 2.77688 15.36 2.78812 16.5459 2.8425C17.2592 2.85097 17.9658 2.98194 18.6347 3.22969C19.12 3.4169 19.5607 3.70364 19.9286 4.07145C20.2964 4.43926 20.5831 4.88 20.7703 5.36531C21.0181 6.03425 21.149 6.74077 21.1575 7.45406C21.2119 8.64 21.2231 8.99625 21.2231 12.0009C21.2231 15.0056 21.2119 15.36 21.1575 16.5459C21.149 17.2592 21.0181 17.9658 20.7703 18.6347C20.5831 19.12 20.2964 19.5607 19.9286 19.9286C19.5607 20.2964 19.12 20.5831 18.6347 20.7703C17.9658 21.0181 17.2592 21.149 16.5459 21.1575C15.36 21.2119 15.0037 21.2231 12 21.2231C8.99625 21.2231 8.64 21.2119 7.45406 21.1575C6.74077 21.149 6.03425 21.0181 5.36531 20.7703C4.88 20.5831 4.43926 20.2964 4.07145 19.9286C3.70364 19.5607 3.4169 19.12 3.22969 18.6347C2.98194 17.9658 2.85097 17.2592 2.8425 16.5459C2.78812 15.36 2.77688 15.0037 2.77688 12C2.77688 8.99625 2.78812 8.64 2.8425 7.45406C2.85097 6.74077 2.98194 6.03425 3.22969 5.36531C3.4169 4.88 3.70364 4.43926 4.07145 4.07145C4.43926 3.70364 4.88 3.4169 5.36531 3.22969C6.03425 2.98194 6.74077 2.85097 7.45406 2.8425C8.64 2.78812 8.99625 2.77688 12 2.77688ZM12 0.75C8.94469 0.75 8.56125 0.763125 7.36125 0.8175C6.42823 0.83634 5.50515 1.01322 4.63125 1.34063C3.8838 1.62965 3.20499 2.07167 2.63833 2.63833C2.07167 3.20499 1.62965 3.8838 1.34063 4.63125C1.01312 5.50544 0.836234 6.42885 0.8175 7.36219C0.763125 8.56219 0.75 8.94375 0.75 12C0.75 15.0562 0.763125 15.4388 0.8175 16.6388C0.83634 17.5718 1.01322 18.4949 1.34063 19.3688C1.62965 20.1162 2.07167 20.795 2.63833 21.3617C3.20499 21.9283 3.8838 22.3703 4.63125 22.6594C5.50544 22.9869 6.42885 23.1638 7.36219 23.1825C8.56219 23.2369 8.94469 23.25 12 23.25C15.0553 23.25 15.4388 23.2369 16.6388 23.1825C17.5721 23.1638 18.4955 22.9869 19.3697 22.6594C20.1171 22.3703 20.7959 21.9283 21.3626 21.3617C21.9293 20.795 22.3713 20.1162 22.6603 19.3688C22.9875 18.4945 23.1641 17.5711 23.1825 16.6378C23.2369 15.4378 23.25 15.0562 23.25 12C23.25 8.94375 23.2369 8.56125 23.1825 7.36125C23.1637 6.42823 22.9868 5.50515 22.6594 4.63125C22.3703 3.8838 21.9283 3.20499 21.3617 2.63833C20.795 2.07167 20.1162 1.62965 19.3688 1.34063C18.4945 1.01344 17.5711 0.836872 16.6378 0.818437C15.4378 0.762187 15.0562 0.75 12 0.75Z" fill="#F6F6F6"/>
</svg>
