<svg width="18" height="18" viewBox="0 0 18 18" fill="none" xmlns="http://www.w3.org/2000/svg">
<path d="M13.8046 5.27548C14.4011 5.27548 14.8846 4.79195 14.8846 4.19548C14.8846 3.59901 14.4011 3.11548 13.8046 3.11548C13.2081 3.11548 12.7246 3.59901 12.7246 4.19548C12.7246 4.79195 13.2081 5.27548 13.8046 5.27548Z" fill="#F6F6F6"/>
<path d="M8.99992 4.37842C8.08587 4.37842 7.19235 4.64946 6.43235 5.15728C5.67235 5.6651 5.08 6.38688 4.73021 7.23135C4.38042 8.07581 4.2889 9.00504 4.46722 9.90153C4.64554 10.798 5.0857 11.6215 5.73203 12.2678C6.37835 12.9141 7.20183 13.3543 8.09831 13.5326C8.99479 13.7109 9.92402 13.6194 10.7685 13.2696C11.613 12.9198 12.3347 12.3275 12.8426 11.5675C13.3504 10.8075 13.6214 9.91396 13.6214 8.99992C13.6214 7.77422 13.1345 6.59872 12.2678 5.73202C11.4011 4.86532 10.2256 4.37842 8.99992 4.37842ZM8.99992 11.9999C8.40658 11.9999 7.82656 11.824 7.33321 11.4943C6.83986 11.1647 6.45534 10.6961 6.22828 10.148C6.00122 9.59979 5.94181 8.99659 6.05756 8.41465C6.17332 7.8327 6.45904 7.29815 6.8786 6.8786C7.29816 6.45904 7.83271 6.17332 8.41465 6.05756C8.99659 5.94181 9.59979 6.00122 10.148 6.22828C10.6961 6.45534 11.1647 6.83986 11.4943 7.33321C11.824 7.82655 11.9999 8.40657 11.9999 8.99992C11.9999 9.79557 11.6838 10.5586 11.1212 11.1212C10.5586 11.6838 9.79557 11.9999 8.99992 11.9999Z" fill="#F6F6F6"/>
<path d="M9 1.6215C11.403 1.6215 11.688 1.6305 12.6368 1.674C13.2074 1.68077 13.7726 1.78555 14.3077 1.98375C14.696 2.13352 15.0486 2.36291 15.3428 2.65716C15.6371 2.95141 15.8665 3.304 16.0163 3.69225C16.2145 4.2274 16.3192 4.79262 16.326 5.36325C16.3695 6.312 16.3785 6.597 16.3785 9.00075C16.3785 11.4045 16.3695 11.688 16.326 12.6368C16.3192 13.2074 16.2145 13.7726 16.0163 14.3077C15.8665 14.696 15.6371 15.0486 15.3428 15.3428C15.0486 15.6371 14.696 15.8665 14.3077 16.0163C13.7726 16.2145 13.2074 16.3192 12.6368 16.326C11.688 16.3695 11.403 16.3785 9 16.3785C6.597 16.3785 6.312 16.3695 5.36325 16.326C4.79262 16.3192 4.2274 16.2145 3.69225 16.0163C3.304 15.8665 2.95141 15.6371 2.65716 15.3428C2.36291 15.0486 2.13352 14.696 1.98375 14.3077C1.78555 13.7726 1.68077 13.2074 1.674 12.6368C1.6305 11.688 1.6215 11.403 1.6215 9C1.6215 6.597 1.6305 6.312 1.674 5.36325C1.68077 4.79262 1.78555 4.2274 1.98375 3.69225C2.13352 3.304 2.36291 2.95141 2.65716 2.65716C2.95141 2.36291 3.304 2.13352 3.69225 1.98375C4.2274 1.78555 4.79262 1.68077 5.36325 1.674C6.312 1.6305 6.597 1.6215 9 1.6215ZM9 0C6.55575 0 6.249 0.0105 5.289 0.054C4.54258 0.0690721 3.80412 0.210577 3.105 0.4725C2.50704 0.703723 1.96399 1.05733 1.51066 1.51066C1.05733 1.96399 0.703723 2.50704 0.4725 3.105C0.210494 3.80435 0.0689875 4.54308 0.054 5.28975C0.0105 6.24975 0 6.555 0 9C0 11.445 0.0105 11.751 0.054 12.711C0.0690721 13.4574 0.210577 14.1959 0.4725 14.895C0.703723 15.493 1.05733 16.036 1.51066 16.4893C1.96399 16.9427 2.50704 17.2963 3.105 17.5275C3.80435 17.7895 4.54308 17.931 5.28975 17.946C6.24975 17.9895 6.55575 18 9 18C11.4443 18 11.751 17.9895 12.711 17.946C13.4577 17.931 14.1964 17.7895 14.8958 17.5275C15.4937 17.2963 16.0368 16.9427 16.4901 16.4893C16.9434 16.036 17.297 15.493 17.5282 14.895C17.79 14.1956 17.9313 13.4569 17.946 12.7103C17.9895 11.7503 18 11.445 18 9C18 6.555 17.9895 6.249 17.946 5.289C17.9309 4.54258 17.7894 3.80412 17.5275 3.105C17.2963 2.50704 16.9427 1.96399 16.4893 1.51066C16.036 1.05733 15.493 0.703723 14.895 0.4725C14.1956 0.21075 13.4569 0.0694973 12.7103 0.05475C11.7503 0.00974997 11.445 0 9 0Z" fill="#F6F6F6"/>
</svg>
