<svg width="27" height="16" viewBox="0 0 27 16" fill="none" xmlns="http://www.w3.org/2000/svg">
<path d="M15.3075 7.6233C15.3075 11.7003 11.9934 15.0061 7.90335 15.0061C6.93254 15.0074 5.97097 14.8175 5.07356 14.4472C4.17614 14.0768 3.36046 13.5334 2.67307 12.8478C1.98569 12.1623 1.44006 11.348 1.06735 10.4516C0.694642 9.55518 0.502146 8.59412 0.500854 7.6233C0.500854 3.54471 3.81492 0.240487 7.90335 0.240487C8.87431 0.238978 9.83605 0.428755 10.7337 0.79898C11.6313 1.1692 12.4471 1.71262 13.1347 2.3982C13.8223 3.08378 14.368 3.89809 14.7408 4.79462C15.1137 5.69116 15.3062 6.65235 15.3075 7.6233ZM23.4286 7.6233C23.4286 11.4624 21.7716 14.573 19.7273 14.573C17.6831 14.573 16.0261 11.4607 16.0261 7.6233C16.0261 3.78424 17.6831 0.673613 19.7273 0.673613C21.7716 0.673613 23.4286 3.78588 23.4286 7.6233ZM26.7509 7.6233C26.7509 11.0621 26.1684 13.8495 25.4482 13.8495C24.7296 13.8495 24.1472 11.0604 24.1472 7.6233C24.1472 4.18455 24.7296 1.39713 25.4498 1.39713C26.1684 1.39713 26.7509 4.18455 26.7509 7.6233Z" fill="#F6F6F6"/>
</svg>
