<svg width="23" height="19" viewBox="0 0 23 19" fill="none" xmlns="http://www.w3.org/2000/svg">
<path d="M1.12887 8.95666L6.07136 10.8013L7.98441 16.9537C8.10682 17.3477 8.58865 17.4934 8.90847 17.2319L11.6635 14.9859C11.9523 14.7506 12.3636 14.7389 12.6654 14.958L17.6345 18.5656C17.9766 18.8143 18.4613 18.6269 18.5471 18.2134L22.1873 0.703798C22.2809 0.252206 21.8372 -0.124526 21.4072 0.041782L1.12308 7.86679C0.622508 8.05983 0.626869 8.76854 1.12887 8.95666ZM7.6761 9.81937L17.3356 3.87009C17.5092 3.76349 17.6878 3.99822 17.5387 4.1365L9.56684 11.5467C9.28663 11.8076 9.10588 12.1566 9.05469 12.5355L8.78313 14.5479C8.74717 14.8166 8.36972 14.8433 8.29558 14.5833L7.25118 10.9135C7.13156 10.495 7.30588 10.0479 7.6761 9.81937Z" fill="#F6F6F6"/>
</svg>
