<svg width="26" height="20" viewBox="0 0 26 20" fill="none" xmlns="http://www.w3.org/2000/svg">
<path d="M22.5412 4.99618C22.5575 5.21493 22.5575 5.43243 22.5575 5.64993C22.5575 12.3062 17.4912 19.9762 8.2325 19.9762C5.38 19.9762 2.73 19.1499 0.5 17.7149C0.905 17.7612 1.295 17.7774 1.71625 17.7774C3.98249 17.7829 6.18456 17.0251 7.9675 15.6262C6.91678 15.6072 5.89822 15.2605 5.05405 14.6346C4.20988 14.0087 3.58223 13.1348 3.25875 12.1349C3.57 12.1812 3.8825 12.2124 4.21 12.2124C4.66125 12.2124 5.115 12.1499 5.53625 12.0412C4.39595 11.811 3.37059 11.1929 2.63452 10.292C1.89845 9.39121 1.49712 8.26324 1.49875 7.09993V7.03743C2.17 7.41118 2.94875 7.64493 3.77375 7.67618C3.08261 7.21691 2.5159 6.59371 2.12417 5.86217C1.73245 5.13063 1.52789 4.3135 1.52875 3.48368C1.52875 2.54868 1.7775 1.69118 2.21375 0.943682C3.47892 2.49996 5.05688 3.77313 6.84542 4.68076C8.63396 5.58838 10.5932 6.1102 12.5963 6.21243C12.5188 5.83743 12.4712 5.44868 12.4712 5.05868C12.4709 4.39738 12.6009 3.74251 12.8538 3.13148C13.1068 2.52046 13.4776 1.96528 13.9452 1.49767C14.4128 1.03006 14.968 0.659196 15.5791 0.40628C16.1901 0.153364 16.845 0.0233537 17.5062 0.0236823C18.9562 0.0236823 20.265 0.631182 21.185 1.61368C22.3122 1.3957 23.3932 0.98421 24.38 0.397432C24.0043 1.56095 23.2172 2.54756 22.1663 3.17243C23.166 3.05841 24.143 2.7955 25.065 2.39243C24.3764 3.39631 23.5232 4.27661 22.5412 4.99618Z" fill="#F6F6F6"/>
</svg>
